<?xml version="1.0" standalone="no"?>
<svg
  width="600"
  height="600"
  viewBox="0 0 600 600"
  xmlns="http://www.w3.org/2000/svg"
>
  <g transform="translate(300,300)">
    <path d="M111.7,-169.7C145.2,-152.3,173.1,-122.1,198.6,-85.2C224.1,-48.3,247.2,-4.7,247,39.5C246.9,83.7,223.6,128.6,185.4,145.4C147.1,162.1,94,150.6,51.5,152.7C9,154.8,-22.8,170.5,-59.4,173C-95.9,175.6,-137.1,165.1,-170.1,140.1C-203,115.1,-227.7,75.7,-234.8,33.1C-241.9,-9.5,-231.5,-55.2,-213.1,-98.1C-194.8,-141,-168.5,-181.1,-131.6,-197C-94.8,-212.8,-47.4,-204.4,-4.1,-198C39.1,-191.5,78.2,-187,111.7,-169.7Z" fill="#ffe680" />
  </g>
</svg>
  